<svg width="64" height="64" viewBox="0 0 64 64" xmlns="http://www.w3.org/2000/svg">
  <rect x="0" y="0" width="64" height="64" rx="16" fill="#6366f1"/>
  <path d="M32 10C27.5817 10 24 13.5817 24 18V28C24 32.4183 27.5817 36 32 36C36.4183 36 40 32.4183 40 28V18C40 13.5817 36.4183 10 32 10Z" fill="white"/>
  <path d="M44 28C44 34.6274 38.6274 40 32 40C25.3726 40 20 34.6274 20 28H16C16 36.1438 22.0827 42.8712 30 43.874V50H24V54H40V50H34V43.874C41.9173 42.8712 48 36.1438 48 28H44Z" fill="white"/>
</svg>
